<svg xmlns="http://www.w3.org/2000/svg" viewBox="0 0 512 512">
  <rect width="512" height="512" rx="104" fill="#00A884"/>
  <path fill="#ffffff" d="M256 144c-72.8 0-132 50.2-132 112.2 0 35.3 19.2 66.8 49.2 87.3-2.1 19.8-11.2 37.3-11.4 37.6-1.7 3-1 6.8 1.7 9 1.5 1.2 3.3 1.8 5.1 1.8 1.2 0 2.4-.3 3.6-.8.5-.2 35.2-16.1 57.3-29.6 8.9 1.6 18.2 2.5 26.5 2.9 73 0 132-50.2 132-112.2S328.8 144 256 144zm-58 124a18 18 0 110-36 18 18 0 010 36zm58 0a18 18 0 110-36 18 18 0 010 36zm58 0a18 18 0 110-36 18 18 0 010 36z"/>
</svg>
